<svg version="1.1" id="Layer_1" xmlns="http://www.w3.org/2000/svg" xmlns:xlink="http://www.w3.org/1999/xlink" x="0px" y="0px"
	 width="100%" viewBox="0 0 2480 2480" enable-background="new 0 0 2480 2480" xml:space="preserve">
<path fill="#B4E0E3" opacity="1.000000" stroke="none" 
	d="
M1250.679443,1927.459717 
	C1190.349976,1957.708984 1130.020508,1987.958374 1068.461548,2018.824219 
	C1067.609009,2006.113403 1066.252075,1995.274902 1066.247192,1984.435913 
	C1066.129272,1718.774170 1066.154907,1453.112427 1066.154785,1187.450684 
	C1066.154785,1183.529419 1066.154785,1179.608032 1066.154785,1174.153931 
	C1058.726074,1177.815308 1052.444092,1180.665894 1046.390747,1183.939575 
	C1025.318115,1195.335449 1004.304199,1206.840576 983.306091,1218.373535 
	C950.935242,1236.152832 918.635132,1254.061157 886.230469,1271.778320 
	C861.118103,1285.508423 835.888489,1299.023804 810.717834,1312.647339 
	C803.108887,1316.765869 795.612793,1321.105591 787.889160,1324.994751 
	C783.843506,1327.031860 781.660767,1329.625244 782.030457,1334.314575 
	C782.291504,1337.627075 782.075928,1340.977173 782.076233,1344.310425 
	C782.102112,1606.305542 782.128174,1868.300537 782.153687,2130.295654 
	C782.153931,2132.962158 782.043762,2135.633789 782.169495,2138.294189 
	C782.345825,2142.023926 781.052612,2144.737793 777.480408,2146.254639 
	C775.644531,2147.034180 773.913025,2148.057373 772.125061,2148.951904 
	C718.188171,2175.934814 664.252991,2202.920898 610.305420,2229.882812 
	C607.116882,2231.476562 603.828430,2232.870361 598.910828,2235.125488 
	C598.579529,2230.222412 598.148926,2226.786133 598.145142,2223.349365 
	C598.093811,2176.350098 598.098389,2129.351074 598.095093,2082.351807 
	C598.077209,1827.689941 597.990356,1573.028198 598.133789,1318.366333 
	C598.151611,1286.777344 599.584473,1255.191040 599.899353,1223.598877 
	C599.956604,1217.858398 602.701782,1215.075806 606.863464,1212.738525 
	C614.696960,1208.339600 622.614441,1204.088989 630.524048,1199.826782 
	C657.772827,1185.144043 685.095154,1170.596313 712.273315,1155.783936 
	C744.701660,1138.110229 776.981323,1120.163818 809.382507,1102.439941 
	C827.193115,1092.697144 845.156006,1083.232788 862.988647,1073.529785 
	C899.233154,1053.808838 935.413635,1033.970337 971.663391,1014.258972 
	C997.393005,1000.268127 1023.189697,986.400818 1048.965454,972.495117 
	C1051.604004,971.071655 1054.265381,969.678345 1056.983887,968.417358 
	C1063.606689,965.345276 1066.397827,960.940308 1066.376343,952.946167 
	C1066.056030,833.615906 1066.154785,714.284546 1066.154663,594.953430 
	C1066.154663,591.720642 1066.154663,588.487793 1066.154663,583.693298 
	C1056.836060,588.478943 1048.896729,592.355713 1041.144897,596.576782 
	C1022.151917,606.919006 1003.259827,617.446167 984.301147,627.851685 
	C950.465454,646.422485 916.629883,664.993774 882.755798,683.494446 
	C865.230652,693.066040 847.607300,702.457520 830.057495,711.984131 
	C815.727478,719.762756 801.497681,727.728455 787.096497,735.372009 
	C783.303894,737.384888 781.780762,740.057861 782.044495,744.159180 
	C782.193909,746.482666 782.065857,748.823975 782.065857,751.157227 
	C782.065918,846.822083 781.944824,942.487427 782.280579,1038.151123 
	C782.309692,1046.455688 779.516968,1050.457642 772.344177,1054.008667 
	C744.289795,1067.897827 716.507263,1082.340210 688.713440,1096.750244 
	C662.408691,1110.388306 636.226257,1124.262207 609.961670,1137.978027 
	C606.831970,1139.612427 603.523926,1140.905518 598.721313,1143.066528 
	C598.437805,1138.045288 598.077209,1134.568237 598.071228,1131.090820 
	C598.024414,1103.758057 598.045471,1076.425171 598.045532,1049.092407 
	C598.045532,912.095093 598.134766,775.097534 597.839172,638.100830 
	C597.820068,629.228882 600.374084,624.656128 608.390381,620.442078 
	C644.318420,601.554565 679.774963,581.771118 715.428955,562.361145 
	C732.674988,552.972473 749.995300,543.720459 767.257324,534.361084 
	C805.579468,513.582764 843.860107,492.727600 882.207825,471.996490 
	C910.608765,456.642670 939.144531,441.538025 967.518799,426.135437 
	C1001.732483,407.563019 1035.818359,388.755157 1070.000366,370.124054 
	C1087.533813,360.567322 1105.183594,351.224335 1122.732666,341.695831 
	C1160.457886,321.212250 1198.142212,300.653564 1235.872192,280.178558 
	C1239.958374,277.961182 1244.233521,276.092255 1249.349976,274.902039 
	C1250.316650,282.073975 1250.387207,288.405518 1250.387329,294.737091 
	C1250.397095,834.314880 1250.401001,1373.892700 1250.417847,1913.470459 
	C1250.417969,1918.133545 1250.588501,1922.796631 1250.679443,1927.459717 
z"/>
<path fill="#2D4C61" opacity="1.000000" stroke="none" 
	d="
M1251.340576,1927.672729 
	C1250.588501,1922.796631 1250.417969,1918.133545 1250.417847,1913.470459 
	C1250.401001,1373.892700 1250.397095,834.314880 1250.387329,294.737091 
	C1250.387207,288.405518 1250.316650,282.073975 1250.061523,274.818298 
	C1249.843994,273.894226 1250.139893,274.023590 1250.923218,274.101379 
	C1252.569336,274.049500 1253.432007,273.919830 1254.294800,273.790100 
	C1264.867676,279.410187 1275.478271,284.960663 1286.006592,290.662994 
	C1321.968018,310.140259 1357.885986,329.698212 1393.846924,349.176483 
	C1560.735596,439.572052 1727.610962,529.992188 1894.605347,620.192078 
	C1901.587891,623.963623 1904.320801,628.034729 1904.270020,636.218323 
	C1903.866089,701.530579 1904.017944,766.846191 1903.448730,833.312256 
	C1902.416870,834.868164 1902.117432,835.379211 1902.000000,835.996765 
	C1898.998901,834.636169 1895.896973,833.460449 1893.011353,831.887817 
	C1823.703125,794.114319 1754.421509,756.291748 1685.127319,718.492554 
	C1648.830688,698.693237 1612.515503,678.927979 1576.215088,659.135559 
	C1532.842896,635.487183 1489.482422,611.817017 1446.098389,588.190247 
	C1442.979980,586.491943 1439.710449,585.071045 1435.544556,583.052856 
	C1435.327026,587.128967 1435.038696,590.024536 1435.037109,592.920288 
	C1434.969360,712.910950 1434.985718,832.901672 1434.731689,952.891907 
	C1434.717041,959.816162 1436.894287,963.459351 1443.023315,966.771362 
	C1533.508667,1015.667053 1623.842529,1064.842896 1715.244629,1114.649170 
	C1717.853882,1115.952148 1719.643433,1117.029663 1719.528564,1113.880981 
	C1719.627930,1109.890015 1719.813232,1105.899048 1719.813965,1101.908081 
	C1719.829956,1009.981628 1719.826172,918.055176 1719.826050,826.128723 
	C1719.826050,822.540771 1719.826050,818.952820 1719.826050,813.462036 
	C1782.250000,846.774170 1842.939087,880.317688 1903.952026,913.073547 
	C1903.952026,1083.841064 1903.952026,1253.990479 1903.211060,1425.074707 
	C1902.143066,1426.087769 1901.816162,1426.165894 1901.489258,1426.244019 
	C1897.911743,1424.533325 1894.246460,1422.983887 1890.769531,1421.088745 
	C1742.798706,1340.432495 1594.844971,1259.744873 1446.887695,1179.064087 
	C1443.487427,1177.209961 1440.069336,1175.388428 1435.199707,1172.765259 
	C1435.199707,1455.316895 1435.199707,1736.133545 1435.199707,2016.055908 
	C1433.992188,2017.150391 1433.798706,2017.411499 1433.539429,2017.537964 
	C1433.247803,2017.680054 1432.814575,2017.866089 1432.583252,2017.750977 
	C1372.979370,1988.104492 1313.387939,1958.432983 1253.795776,1928.762939 
	C1253.199829,1928.466187 1252.599731,1928.177979 1251.340576,1927.672729 
z"/>
</svg>
